# AST/ASF file generated using VICON BodyLanguage
# -----------------------------------------------
:version 1.10
:name VICON
:units
  mass 1.0
  length 0.45
  angle deg
:documentation
   .ast/.asf automatically generated from VICON data using
   VICON BodyBuilder and BodyLanguage model FoxedUp or BRILLIANT.MOD
:root
   order TX TY TZ RX RY RZ
   axis XYZ
   position 0 0 0  
   orientation 0 0 0 
:bonedata
  begin
     id 1 
     name lhipjoint
     direction 0.610259 -0.730986 0.305356 
     length 2.50941 
     axis 0 0 0  XYZ
  end
  begin
     id 2 
     name lfemur
     direction 0.34202 -0.939693 0  
     length 7.48822  
     axis 0 0 20  XYZ
    dof rx ry rz
    limits (-160.0 20.0)
           (-70.0 70.0)
           (-60.0 70.0)
  end
  begin
     id 3 
     name ltibia
     direction 0.34202 -0.939693 0   
     length 7.60141   
     axis 0 0 20   XYZ
    dof rx
    limits (-10.0 170.0)
  end
  begin
     id 4 
     name lfoot
     direction 0.0673488 -0.185039 0.980421   
     length 2.04049   
     axis -90 7.62852e-016 20   XYZ
    dof rx rz
    limits (-45.0 90.0)
           (-70.0 20.0)
  end
  begin
     id 5 
     name ltoes
     direction 1.5356e-011 -4.21729e-011 1   
     length 1.02897   
     axis -90 7.62852e-016 20   XYZ
    dof rx
    limits (-90.0 20.0)
  end
  begin
     id 6 
     name rhipjoint
     direction -0.57612 -0.754205 0.315056   
     length 2.43216  
     axis 0 0 0  XYZ 
  end
  begin
     id 7 
     name rfemur
     direction -0.34202 -0.939693 0   
     length 7.42799   
     axis 0 0 -20   XYZ
    dof rx ry rz
    limits (-160.0 20.0)
           (-70.0 70.0)
           (-70.0 60.0)
  end
  begin
     id 8 
     name rtibia
     direction -0.34202 -0.939693 0   
     length 7.69484   
     axis 0 0 -20   XYZ
    dof rx
    limits (-10.0 170.0)
 end
 begin
     id 9 
     name rfoot
     direction -0.111837 -0.30727 0.945028   
     length 2.15769  
     axis -90 -7.62852e-016 -20   XYZ
    dof rx rz
    limits (-45.0 90.0)
           (-20.0 70.0)
  end
  begin
     id 10 
     name rtoes
     direction -1.53539e-011 -4.21878e-011 1   
     length 1.07391   
     axis -90 -7.62852e-016 -20   XYZ
    dof rx
    limits (-90.0 20.0)
  end
  begin
     id 11 
     name lowerback
     direction 0.00552624 0.990109 -0.140195   
     length 2.12403   
     axis 0 0 0   XYZ
    dof rx ry rz
    limits (-20.0 45.0)
           (-30.0 30.0)
           (-30.0 30.0)
  end
  begin
     id 12 
     name upperback
     direction 0.00361898 0.999976 -0.00584723   
     length 2.13232   
     axis 0 0 0   XYZ
    dof rx ry rz
    limits (-20.0 45.0)
           (-30.0 30.0)
           (-30.0 30.0)
  end
  begin
     id 13 
     name thorax
     direction -0.000331275 0.998253 0.0590847   
     length 2.17688   
     axis 0 0 0   XYZ
    dof rx ry rz
    limits (-20.0 45.0)
           (-30.0 30.0)
           (-30.0 30.0)
  end
  begin
     id 14 
     name lowerneck
     direction -0.0561561 0.979832 0.19177   
     length 1.64159   
     axis 0 0 0   XYZ
    dof rx ry rz
    limits (-20.0 45.0)
           (-30.0 30.0)
           (-30.0 30.0)
  end
  begin
     id 15 
     name upperneck
     direction 0.0827153 0.979385 -0.184293   
     length 1.68939   
     axis 0 0 0   XYZ
    dof rx ry rz
    limits (-20.0 45.0)
           (-30.0 30.0)
           (-30.0 30.0)
  end
  begin
     id 16
     name head
     direction 0.0278583 0.995936 -0.0856488  
     length 1.70207  
     axis 0 0 0   XYZ
    dof rx ry rz
    limits (-20.0 45.0)
           (-30.0 30.0)
           (-30.0 30.0)
  end
  begin
     id 17 
     name lclavicle
     direction 0.950993 0.301131 -0.0702275  
     length 3.41652  
     axis 0 0 0   XYZ
    dof ry rz
    limits (-20.0 10.0)
           (0.0 20.0)
  end
  begin
     id 18 
     name lhumerus
     direction 1 -4.48981e-011 -3.9662e-029   
     length 5.32955   
     axis 180 -30 -90   XYZ
    dof rx ry rz
    limits (-60.0 90.0)
           (-90.0 90.0)
           (-90.0 90.0)
  end
  begin
     id 19
     name lradius
     direction 1 -4.48925e-011 -9.0549e-027   
     length 3.69232   
     axis 180 -30 -90   XYZ
    dof rx
    limits (-10.0 170.0)
  end
  begin
     id 20
     name lwrist
     direction 1 -4.49007e-011 -1.49005e-026   
     length 1.84616   
     axis 9.0955e-015 90 90   XYZ
    dof ry
    limits (-180.0 0.0)
 end
  begin
     id 21 
     name lhand
     direction 1 -4.49016e-011 -2.98023e-026   
     length 0.536598   
     axis 1.90115e-014 90 90   XYZ
    dof rx rz
    limits (-90.0 90.0)
           (-45.0 45.0)
  end
  begin
     id 22 
     name lfingers
     direction 1 -4.48924e-011 -5.9578e-026   
     length 0.432619   
     axis 3.80223e-014 90 90   XYZ
    dof rx
    limits (0.0 90.0)
  end
  begin
     id 23
     name lthumb
     direction 0.707107 -6.34947e-011 0.707107   
     length 0.621157   
     axis -90 45 -3.84942e-014   XYZ
    dof rx rz
    limits (-45.0 45.0)
           (-45.0 45.0)
  end
  begin
     id 24 
     name rclavicle
     direction -0.955495 0.276497 -0.102848   
     length 3.36357  
     axis 0 0 0   XYZ 
    dof ry rz
    limits (-10.0 20.0)
           (-20.0 0.0)
  end
  begin
     id 25 
     name rhumerus
     direction -1 -4.48961e-011 3.30983e-027  
     length 5.23431   
     axis 180 30 90   XYZ
    dof rx ry rz
    limits (-90.0 60.0)
           (-90.0 90.0)
           (-90.0 90.0)
  end
  begin
     id 26 
     name rradius
     direction -1 -4.48965e-011 -6.63263e-027   
     length 3.55301   
     axis 180 30 90   XYZ
    dof rx
    limits (-10.0 170.0)
  end
  begin
     id 27 
     name rwrist
     direction -1 -4.48942e-011 -1.48958e-026   
     length 1.77651   
     axis 9.0955e-015 -90 -90   XYZ
    dof ry
    limits (-180.0 0.0)
  end
  begin
     id 28
     name rhand
     direction -1 -4.48977e-011 -2.97966e-026   
     length 0.772522   
     axis 1.90115e-014 -90 -90   XYZ
    dof rx rz
    limits (-90.0 90.0)
           (-45.0 45.0)
  end
  begin
     id 29
     name rfingers
     direction -1 -4.49135e-011 -5.96389e-026   
     length 0.622827   
     axis 3.80223e-014 -90 -90   XYZ
    dof rx
    limits (0.0 90.0)
  end
  begin
     id 30
     name rthumb
     direction -0.707107 -6.34969e-011 0.707107   
     length 0.894259   
     axis -90 -45 3.84942e-014   XYZ
    dof rx rz
    limits (-45.0 45.0)
           (-45.0 45.0)
  end
:hierarchy
  begin
    root lhipjoint rhipjoint lowerback
    lhipjoint lfemur
    lfemur ltibia
    ltibia lfoot
    lfoot ltoes
    rhipjoint rfemur
    rfemur rtibia
    rtibia rfoot
    rfoot rtoes
    lowerback upperback
    upperback thorax
    thorax lowerneck lclavicle rclavicle
    lowerneck upperneck
    upperneck head
    lclavicle lhumerus
    lhumerus lradius
    lradius lwrist
    lwrist lhand lthumb
    lhand lfingers
    rclavicle rhumerus
    rhumerus rradius
    rradius rwrist
    rwrist rhand rthumb
    rhand rfingers
  end

#!OML:ASF F:\VICON\USERDATA\INSTALL\rory3\rory3.ASF
:FULLY-SPECIFIED
:DEGREES
49
root -13.8288 17.8578 -7.56286 -0.401977 2.90433 -4.461
lowerback 11.1376 2.18733 3.28107
upperback 0.699154 3.37579 1.01708
thorax -5.38321 1.59421 -1.30294
lowerneck -21.7726 -5.95567 -11.7936
upperneck 27.1629 -7.14489 9.14394
head 13.6236 -3.12385 4.32035
rclavicle 6.88913e-014 2.11706e-014
rhumerus -26.5686 -10.6858 -79.4835
rradius 30.9314
rwrist 5.50352
rhand -17.533 9.47139
rfingers 7.12502
rthumb 8.72106 -20.3284
lclavicle 6.88913e-014 2.11706e-014
lhumerus -34.1415 7.74334 84.054
lradius 28.994
lwrist -8.80175
lhand -17.6218 25.4083
lfingers 7.12502
lthumb 8.63536 55.2117
rfemur 3.09274 -4.30651 26.7475
rtibia 19.1348
rfoot -15.7598 -0.610553
rtoes -0.44686
lfemur -22.9025 5.08634 -18.201
ltibia 25.5675
lfoot -4.308 8.52594
ltoes -6.99572
50
root -13.8047 17.851 -7.43662 -0.316194 3.10516 -4.5239
lowerback 10.9829 2.22652 3.34064
upperback 0.70891 3.4288 1.02528
thorax -5.28122 1.6214 -1.32793
lowerneck -21.5983 -5.95431 -11.7528
upperneck 26.9276 -7.15098 9.11252
head 13.4858 -3.12887 4.2924
rclavicle 2.02326e-014 3.08116e-015
rhumerus -26.1581 -11.0741 -79.293
rradius 30.6356
rwrist 6.12843
rhand -17.676 9.76303
rfingers 7.12502
rthumb 8.58302 -20.0425
lclavicle 2.02326e-014 3.08116e-015
lhumerus -34.2751 8.13843 83.9526
lradius 28.7574
lwrist -9.43252
lhand -17.0322 26.034
lfingers 7.12502
lthumb 9.20431 55.8131
rfemur 3.67223 -4.46379 26.7389
rtibia 18.6963
rfoot -15.8392 -0.727861
rtoes -0.671287
lfemur -22.8834 4.39123 -18.0958
ltibia 23.3146
lfoot -3.59017 8.82969
ltoes -7.99095
51
root -13.7789 17.8379 -7.31245 -0.128374 3.34894 -4.68608
lowerback 10.784 2.20786 3.48846
upperback 0.721684 3.41564 1.07427
thorax -5.15173 1.61514 -1.34763
lowerneck -21.7853 -5.95282 -11.6772
upperneck 26.9138 -7.0947 8.93562
head 13.4998 -3.11482 4.21587
rclavicle 2.8097e-014 -1.63997e-014
rhumerus -25.6972 -11.0369 -79.2419
rradius 30.7282
rwrist 6.10566
rhand -17.3751 9.50851
rfingers 7.12502
rthumb 8.87334 -20.2849
lclavicle 2.8097e-014 -1.63997e-014
lhumerus -34.2363 8.55439 83.9096
lradius 28.4757
lwrist -9.85324
lhand -16.4075 26.9278
lfingers 7.12502
lthumb 9.80706 56.6795
rfemur 4.0861 -4.52375 26.8655
rtibia 18.2714
rfoot -15.8578 -0.917639
rtoes -0.457368
lfemur -22.9976 3.41718 -17.8117
ltibia 21.1358
lfoot -2.80095 9.30687
ltoes -9.26121
52
root -13.753 17.8226 -7.18945 0.0567514 3.5757 -4.91061
lowerback 10.6821 2.19167 3.68549
upperback 0.633778 3.42002 1.14166
thorax -5.17994 1.61208 -1.38556
lowerneck -21.8942 -5.93846 -11.7808
upperneck 27.0037 -7.04711 8.9971
head 13.5615 -3.09453 4.27014
rclavicle -1.83565e-014 -1.42131e-014
rhumerus -25.5364 -10.5046 -79.2515
rradius 31.2687
rwrist 5.06387
rhand -16.6604 8.6702
rfingers 7.12502
rthumb 9.563 -21.0928
lclavicle -1.83565e-014 -1.42131e-014
lhumerus -34.352 8.95418 83.8427
lradius 28.1055
lwrist -10.1154
lhand -16.4881 26.6882
lfingers 7.12502
lthumb 9.72928 56.4434
rfemur 4.47893 -4.59732 27.0683
rtibia 17.9074
rfoot -15.8431 -1.15717
rtoes -1.08552
lfemur -23.1048 2.15837 -17.3424
ltibia 19.0665
lfoot -2.29801 10.1461
ltoes -10.1728
53
root -13.7252 17.811 -7.06758 0.219916 3.71905 -5.04672
lowerback 10.7355 2.23565 3.84941
upperback 0.412184 3.50847 1.13297
thorax -5.42876 1.64336 -1.50745
lowerneck -21.6333 -5.93272 -11.8771
upperneck 27.0434 -7.0822 9.13637
head 13.5394 -3.10793 4.34061
rclavicle 2.01394e-014 -2.08724e-014
rhumerus -25.7388 -10.3378 -79.1615
rradius 31.6578
rwrist 4.51311
rhand -16.3315 8.3638
rfingers 7.12502
rthumb 9.88035 -21.3844
lclavicle 2.01394e-014 -2.08724e-014
lhumerus -34.7778 9.0726 83.7239
lradius 27.8869
lwrist -10.3764
lhand -16.2494 26.5948
lfingers 7.12502
lthumb 9.95953 56.3392
rfemur 4.87909 -4.56215 27.1608
rtibia 17.6145
rfoot -15.7523 -1.33305
rtoes -1.91302
lfemur -23.1756 0.609574 -16.8374
ltibia 17.1717
lfoot -2.40322 11.7063
ltoes -9.84516
54
root -13.6953 17.8017 -6.94586 0.39083 3.89222 -5.16581
lowerback 10.7182 2.26248 4.03969
upperback 0.250797 3.57019 1.09235
thorax -5.57219 1.66294 -1.66862
lowerneck -21.4276 -5.9317 -11.721
upperneck 27.0518 -7.11688 8.99347
head 13.4907 -3.13028 4.25093
rclavicle -4.28132e-014 -1.36167e-014
rhumerus -25.8085 -10.2682 -79.1204
rradius 31.8306
rwrist 4.38924
rhand -16.5515 8.47419
rfingers 7.12502
rthumb 9.66808 -21.2839
lclavicle -4.28132e-014 -1.36167e-014
lhumerus -35.0862 9.228 83.5659
lradius 27.6805
lwrist -10.6558
lhand -15.8436 26.9599
lfingers 7.12502
lthumb 10.3511 56.6851
rfemur 5.23233 -4.54697 27.2128
rtibia 17.4152
rfoot -15.6946 -1.43702
rtoes -3.19047
lfemur -23.253 -1.38155 -16.1976
ltibia 15.4437
lfoot -3.21992 13.8693
ltoes -8.34616
55
root -13.6615 17.7881 -6.81577 0.53563 4.03259 -5.28882
lowerback 10.5251 2.27088 4.1249
upperback 0.24635 3.5853 1.15233
thorax -5.46648 1.67171 -1.64617
lowerneck -21.5837 -5.92267 -11.6337
upperneck 27.152 -7.05858 8.79526
head 13.5445 -3.11846 4.16824
rclavicle 4.34096e-014 -9.24349e-015
rhumerus -25.5681 -9.89894 -79.1035
rradius 32.026
rwrist 4.0375
rhand -16.7109 8.33306
rfingers 7.12502
rthumb 9.51431 -21.4321
lclavicle 4.34096e-014 -9.24349e-015
lhumerus -35.1858 9.58965 83.5383
lradius 27.4395
lwrist -10.9743
lhand -15.8595 27.1387
lfingers 7.12502
lthumb 10.3357 56.8647
rfemur 5.63264 -4.62283 27.2065
rtibia 17.2562
rfoot -15.7459 -1.29052
rtoes -3.33937
lfemur -23.3248 -3.91162 -15.3597
ltibia 13.9355
lfoot -4.30062 16.729
ltoes -7.83602
56
root -13.6236 17.7724 -6.67738 0.664965 4.03879 -5.35778
lowerback 10.2709 2.34129 4.14711
upperback 0.253012 3.67082 1.20788
thorax -5.31448 1.71809 -1.59961
lowerneck -21.7554 -5.91467 -11.7227
upperneck 27.2623 -6.99675 8.78739
head 13.6226 -3.09839 4.19439
rclavicle 2.25434e-014 3.08116e-015
rhumerus -25.3657 -9.75757 -79.0081
rradius 32.1506
rwrist 3.84485
rhand -16.6556 8.27377
rfingers 7.12502
rthumb 9.56766 -21.489
lclavicle 2.25434e-014 3.08116e-015
lhumerus -35.2886 9.81172 83.6035
lradius 27.2151
lwrist -11.332
lhand -15.8447 27.91
lfingers 7.12502
lthumb 10.35 57.6353
rfemur 6.04804 -4.57719 27.1068
rtibia 17.1034
rfoot -15.8113 -1.0887
rtoes -3.15583
lfemur -23.5024 -7.09785 -14.2932
ltibia 12.708
lfoot -5.28391 20.5406
ltoes -7.87419
57
root -13.5852 17.7615 -6.54003 0.79545 4.10281 -5.41245
lowerback 10.0778 2.39806 4.22918
upperback 0.208524 3.74675 1.20176
thorax -5.2432 1.7548 -1.6534
lowerneck -21.862 -5.93021 -11.8402
upperneck 27.3962 -7.00085 8.87973
head 13.712 -3.09853 4.2555
rclavicle -5.30569e-014 -2.06736e-014
rhumerus -25.3102 -9.73256 -78.9271
rradius 32.3366
rwrist 3.80323
rhand -16.4504 8.03233
rfingers 7.12502
rthumb 9.76563 -21.7212
lclavicle -5.30569e-014 -2.06736e-014
lhumerus -35.4952 9.89853 83.6078
lradius 27.0699
lwrist -11.5595
lhand -15.775 28.4776
lfingers 7.12502
lthumb 10.4172 58.1995
rfemur 6.46209 -4.50683 27.0257
rtibia 16.9695
rfoot -15.8129 -1.02512
rtoes -3.53905
lfemur -23.5445 -6.72834 -14.368
ltibia 11.7592
lfoot -6.45009 20.7325
ltoes -6.66005
